<svg xmlns="http://www.w3.org/2000/svg" width="41" height="42" viewBox="0 0 41 42">
    <g fill="#FFF" fill-rule="evenodd">
        <path d="M0 25.5h41v-1H0zM26 29.5h8v-1h-8zM13 29.5h12v-1H13zM7 29.5h5v-1H7zM18 33.5h13v-1H18zM9 33.5h8v-1H9zM16 37.5h14v-1H16zM11 37.5h3v-1h-3zM15 41.5h11v-1H15z"/>
        <path d="M33.8 14.093C30.61 6.866 22.05 3.542 14.717 6.686 7.385 9.831 4.014 18.27 7.204 25.5l1.266-.543a12.685 12.685 0 0 1-.177-9.9c1.284-3.214 3.761-5.744 6.975-7.122 6.634-2.845 14.38.161 17.266 6.702a12.804 12.804 0 0 1 0 10.32l1.267.543c1.599-3.625 1.599-7.782-.001-11.407zM2.5 1.692C1.82.922.937.5 0 .5V2c.638 0 1.238.298 1.69.837l.368.443c.122.146.282.22.442.22.16 0 .32-.074.442-.22l.368-.442C3.762 2.298 4.362 2 5 2V.5c-.937 0-1.82.422-2.5 1.192zM4.5 6.692C3.82 5.922 2.937 5.5 2 5.5V7c.638 0 1.238.298 1.69.838l.368.442c.122.147.282.22.442.22.16 0 .32-.073.442-.22l.368-.441C5.762 7.298 6.362 7 7 7V5.5c-.937 0-1.82.422-2.5 1.192zM9.5 3.692C8.821 2.922 7.938 2.5 7 2.5V4c.638 0 1.238.298 1.69.838l.368.442c.122.147.282.22.442.22.16 0 .32-.073.442-.22l.368-.442C10.762 4.298 11.362 4 12 4V2.5c-.937 0-1.82.422-2.5 1.192z"/>
    </g>
</svg>
