<svg xmlns="http://www.w3.org/2000/svg" width="71" height="71" viewBox="0 0 71 71">
    <g fill="#91191C" fill-rule="evenodd">
        <path d="M.01 42.524h70.921v-2.359H.011zM44.923 49.6h14.186V47.24H44.923zM22.461 49.6H42.56V47.24H22.46zM11.822 49.6h8.275V47.24h-8.275zM31.919 56.675H54.38v-2.358H31.92zM16.55 56.675h13.005v-2.358H16.55zM27.19 63.751h23.644v-2.358H27.19zM20.097 63.751h4.729v-2.358h-4.729zM26.008 70.827h18.915v-2.359H26.008z"/>
        <path d="M58.23 22.057C52.77 9.537 38.116 3.779 25.561 9.227 13.01 14.673 7.24 29.291 12.7 41.813l2.168-.94a22.213 22.213 0 0 1-.303-17.147c2.198-5.568 6.439-9.95 11.94-12.338 11.357-4.928 24.616.28 29.558 11.61a22.42 22.42 0 0 1 0 17.874l2.168.942a24.789 24.789 0 0 0-.002-19.758zM4.728 1.943A6.851 6.851 0 0 0 0 .07v2.358c1.207 0 2.342.469 3.196 1.318l.697.696a1.183 1.183 0 0 0 1.671 0l.697-.695a4.502 4.502 0 0 1 3.196-1.318V.07a6.856 6.856 0 0 0-4.729 1.874zM8.275 10.198a6.852 6.852 0 0 0-4.728-1.874v2.359c1.206 0 2.341.468 3.195 1.317l.698.696a1.18 1.18 0 0 0 1.671 0l.696-.694a4.504 4.504 0 0 1 3.197-1.319v-2.36a6.856 6.856 0 0 0-4.729 1.875zM16.55 4.301a6.853 6.853 0 0 0-4.728-1.874v2.359a4.5 4.5 0 0 1 3.195 1.318l.698.696a1.181 1.181 0 0 0 1.672 0l.696-.696a4.503 4.503 0 0 1 3.196-1.317v-2.36a6.854 6.854 0 0 0-4.728 1.874z"/>
    </g>
</svg>
