<svg xmlns="http://www.w3.org/2000/svg" width="64" height="64" viewBox="0 0 64 64">
    <g fill="#91191C" fill-rule="evenodd">
        <path d="M63.513.277a1.069 1.069 0 0 0-.934-.174l-11.19 3.19.586 2.044 9.832-2.802v55.192L47.944 61.68l-15.7-4.177a1.08 1.08 0 0 0-.55 0l-15.7 4.177-13.862-3.952V2.535l13.56 3.864c.186.054.382.054.568.005l15.709-4.178 9.316 2.478.55-2.054L32.243.098a1.066 1.066 0 0 0-.55 0l-15.7 4.177L1.359.103a1.07 1.07 0 0 0-.935.174A1.06 1.06 0 0 0 0 1.125V58.53c0 .474.316.892.773 1.023l14.918 4.251c.187.054.383.055.569.005l15.709-4.18 15.71 4.18a1.08 1.08 0 0 0 .566-.005l14.92-4.251c.458-.131.773-.55.773-1.023V1.125a1.06 1.06 0 0 0-.425-.848z"/>
        <path d="M13.47 31.953c-1.342 0-2.64.392-3.757 1.135a6.71 6.71 0 0 0-2.879 4.294 6.698 6.698 0 0 0 1.007 5.069l4.742 7.1a1.068 1.068 0 0 0 1.773 0l4.742-7.1a6.725 6.725 0 0 0 1.139-3.748c0-3.721-3.036-6.75-6.767-6.75zm3.855 9.318l-3.855 5.774-3.856-5.774a4.583 4.583 0 0 1-.69-3.473 4.593 4.593 0 0 1 1.972-2.941 4.634 4.634 0 0 1 7.208 3.846c.001.917-.269 1.804-.779 2.568z"/>
        <path d="M15.601 38.331a2.129 2.129 0 0 1-2.131 2.126 2.129 2.129 0 0 1-2.132-2.126c0-1.174.955-2.126 2.132-2.126s2.131.952 2.131 2.126zM46.888.062c-1.343 0-2.641.393-3.756 1.136-3.103 2.066-3.944 6.265-1.873 9.36l4.742 7.101a1.065 1.065 0 0 0 1.775 0l4.741-7.1a6.714 6.714 0 0 0 1.138-3.747c0-3.721-3.037-6.75-6.767-6.75zm3.855 9.318l-3.855 5.773-3.856-5.775a4.623 4.623 0 0 1 3.856-7.19c2.556 0 4.635 2.075 4.635 4.623a4.61 4.61 0 0 1-.78 2.569z"/>
        <path d="M49.019 6.44a2.129 2.129 0 0 1-2.131 2.126 2.128 2.128 0 0 1-2.131-2.126c0-1.174.953-2.126 2.13-2.126 1.178 0 2.132.952 2.132 2.126zM54.347 26.638H51.15a3.197 3.197 0 0 1-3.196-3.19V20.26h-2.132v3.189c0 2.93 2.39 5.315 5.328 5.315h3.197a3.197 3.197 0 0 1 3.197 3.189 3.197 3.197 0 0 1-3.197 3.19H31.969c-2.938 0-5.328 2.384-5.328 5.314 0 2.931 2.39 5.315 5.328 5.315h10.656a3.197 3.197 0 0 1 3.197 3.19 3.197 3.197 0 0 1-3.197 3.189H12.788v2.126h29.837c2.938 0 5.329-2.385 5.329-5.315 0-2.931-2.39-5.316-5.33-5.316H31.97a3.197 3.197 0 0 1-3.197-3.189 3.197 3.197 0 0 1 3.197-3.189h22.378c2.938 0 5.329-2.384 5.329-5.315-.001-2.93-2.391-5.315-5.33-5.315z"/>
        <path d="M57.232 18.445L55.1 16.32a1.066 1.066 0 0 0-1.507 0l-2.132 2.126c-.2.2-.312.47-.312.751v3.19c0 .587.477 1.063 1.066 1.063h4.262c.59 0 1.066-.476 1.066-1.063v-3.19c0-.281-.112-.552-.312-.75zm-1.82 2.878h-2.13v-1.686l1.065-1.063 1.066 1.063v1.686zM39.373 15.671l-2.132-6.378a1.066 1.066 0 1 0-2.021-.001l-2.13 6.378c-.11.324-.055.68.145.958.2.279.523.442.865.442h4.263c.342 0 .663-.163.864-.44.2-.278.256-.634.146-.959zm-3.794-.726l.653-1.954.653 1.954h-1.306z"/>
        <path d="M35.166 19.196h2.13v-3.189h-2.13zM57.488 50.752l-2.13-6.379a1.062 1.062 0 0 0-1.011-.727c-.46 0-.865.292-1.011.727l-2.132 6.379a1.06 1.06 0 0 0 .147.957c.2.278.523.442.865.442h4.262c.342 0 .664-.164.865-.442.2-.276.255-.633.145-.957zm-3.793-.727l.652-1.955.653 1.955h-1.305z"/>
        <path d="M53.282 54.277h2.13v-3.19h-2.13zM17.903 18.559c-.402-.536-1.304-.536-1.705 0L13 22.81l1.705 1.275 2.344-3.117 2.344 3.117 1.705-1.275-3.196-4.252z"/>
        <path d="M12.574 16.432a1.067 1.067 0 0 0-1.739.05l-4.262 6.377 1.773 1.18 3.427-5.128 2.293 3.05 1.705-1.276-3.197-4.253zM34.854 26.95l-2.131-2.127a1.067 1.067 0 0 0-1.508 0l-2.13 2.126c-.2.2-.313.47-.313.752v3.189c0 .587.477 1.063 1.066 1.063H34.1c.59 0 1.066-.476 1.066-1.063V27.7c0-.281-.112-.552-.312-.75zm-1.82 2.876h-2.13v-1.685l1.065-1.063 1.066 1.063v1.685zM30.849 15.671l-2.131-6.378a1.067 1.067 0 1 0-2.023-.001l-2.131 6.378a1.063 1.063 0 0 0 1.011 1.4h4.263a1.065 1.065 0 0 0 1.01-1.399zm-3.796-.726l.654-1.954.653 1.954h-1.307z"/>
        <path d="M26.64 19.196h2.132v-3.189H26.64z"/>
    </g>
</svg>
