<?xml version="1.0" encoding="UTF-8"?>
<svg width="1640px" height="1040px" viewBox="0 0 1640 1040" version="1.1" xmlns="http://www.w3.org/2000/svg" xmlns:xlink="http://www.w3.org/1999/xlink">
    <!-- Generator: Sketch 52.5 (67469) - http://www.bohemiancoding.com/sketch -->
    <title>contours</title>
    <desc>Created with Sketch.</desc>
    <g id="Page-1" stroke="none" stroke-width="1" fill="none" fill-rule="evenodd" opacity="0.0483165923">
        <g id="Your-Next-Destination" transform="translate(0.000000, -144.000000)" stroke="#000000" stroke-width="2">
            <g id="Next-Desti-BG" transform="translate(0.000000, 144.000000)">
                <g id="contours" transform="translate(0.000000, -22.000000)">
                    <polyline id="Path" points="1624 0.5 1630.02507 9.14218749 1638 47.5"></polyline>
                    <polyline id="Path" points="1609 2.5 1622.34122 19.4166223 1640 94.5"></polyline>
                    <polyline id="Path" points="1595 0.5 1614.36628 25.8749335 1640 138.5"></polyline>
                    <polyline id="Path" points="1579 2.5 1604.39135 36.1838893 1637.60756 183.942023 1637.7665 184.335341 1637.78532 184.550497 1638 187.5"></polyline>
                    <polyline id="Path" points="1564 2.5 1595.84678 44.7249995 1624.27182 171.102618 1629.8318 184.854172 1630.4903 192.376659 1638 295.5"></polyline>
                    <polyline id="Path" points="1550 2.5 1588.73256 53.1411255 1612.5717 157.657039 1623.68029 184.750259 1624.99595 199.571014 1637.1527 364.187998 1637.39569 367.000519 1637.92825 369.046954 1640 372.5"></polyline>
                    <polyline id="Path" points="1536 2.5 1580.75763 61.5008764 1599.44703 144.114471 1615.87118 184.502133 1617.81638 206.595321 1628.705 355.255304 1629.66893 366.504266 1631.78157 374.689194 1640 388.5"></polyline>
                    <polyline id="Path" points="1520 2.5 1570.7827 69.8451838 1584.45012 130.622594 1606.13808 184.274355 1608.70671 213.623377 1618.37275 346.384118 1620.04777 366.048709 1623.71889 380.356986 1638 404.5"></polyline>
                    <polyline id="Path" points="1505 0.5 1562.23812 76.5379583 1571.03488 115.724106 1598.15608 182.933249 1601.3682 219.698542 1609.90624 337.170364 1612.30381 365.366498 1617.55852 385.882465 1638 420.5"></polyline>
                    <polyline id="Path" points="1491 0.5 1555.12391 84.8815628 1559.05653 102.234537 1591.83902 182.706397 1595.72164 226.726769 1603.17462 328.301978 1606.31737 364.912794 1613.20526 391.55142 1640 436.5"></polyline>
                    <polyline id="Path" points="1475 2.5 1534.53735 81.1877121 1545.71595 94.6464628 1582.15983 184.49611 1586.66152 235.758048 1592.92424 321.483666 1596.77109 366.49222 1605.20215 399.241177 1638 454.5"></polyline>
                    <polyline id="Path" points="1460 2.5 1473.76345 20.6524073 1539.96199 100.186829 1574.15095 184.300638 1579.2983 242.792056 1584.41692 312.710138 1588.98979 366.101276 1599.01208 404.949538 1638 470.5"></polyline>
                    <polyline id="Path" points="1450 2.5 1452.26209 7.59099674 1457.37086 11.2130739 1536.20296 105.9359 1568.13033 184.493713 1573.92429 250.339524 1577.8962 304.599706 1583.19625 366.487427 1594.81226 411.51794 1640 487.5"></polyline>
                    <polyline id="Path" points="1439 1.5 1444.45292 13.8790578 1456.76796 22.6863513 1529.3753 110.689332 1558.78162 183.674082 1565.16801 256.884652 1567.96673 295.450863 1573.9435 365.848163 1587.04265 417.070385 1638 503.5"></polyline>
                    <polyline id="Path" points="1428 0.5 1436.68365 20.1803002 1456.29509 34.182188 1523.45551 115.446709 1550.6558 182.842957 1557.69727 263.427662 1559.35751 286.26728 1566.069 365.185914 1580.77845 422.608398 1638 519.5"></polyline>
                    <polyline id="Path" points="1417 2.5 1428.92818 29.4431419 1455.86717 48.6123032 1517.53611 122.982465 1542.51233 184.660917 1550.21031 272.464144 1550.72598 279.534354 1558.1741 366.821834 1574.498 430.333627 1638 537.5"></polyline>
                    <polyline id="Path" points="1407 0.5 1422.11918 34.7667962 1456.26482 59.1464974 1512.16182 126.784684 1534.80037 182.880012 1542.34878 269.269413 1543.21893 277.997389 1550.63974 365.260025 1568.50437 435.002235 1630.69128 540.305386 1633.93851 547.640037 1635.0672 550.58324 1638 553.5"></polyline>
                    <polyline id="Path" points="1396 2.5 1414.37552 43.9692171 1455.87537 73.4732044 1506.24276 134.159975 1526.6418 184.490188 1533.44348 262.001043 1535.89809 286.516723 1542.72737 366.480375 1562.21004 442.214391 1606.64864 517.14235 1620.57792 548.470563 1625.41952 561.041754 1638 573.5"></polyline>
                    <polyline id="Path" points="1387 2.5 1408.6418 51.229849 1457.51832 85.8995377 1502.324 139.762848 1520.47051 184.434066 1526.52113 253.229806 1530.56625 293.539411 1536.80029 366.368131 1557.90399 448.217774 1584.5131 492.98181 1609.16569 548.302197 1617.73456 570.500821 1640 592.5"></polyline>
                    <polyline id="Path" points="1376 0.5 1400.91683 56.5790141 1457.18979 96.4773926 1496.40548 143.599605 1512.28803 182.680133 1517.58377 242.865953 1523.22472 299.052933 1528.86026 364.860266 1551.58765 452.967896 1560.29579 467.610892 1595.70802 547.040399 1608.01678 578.913382 1640 610.5"></polyline>
                    <polyline id="Path" points="1365 0.5 1392.99452 63.9426302 1456.21824 109.07998 1489.57456 149.439365 1503.08403 182.911181 1507.58851 234.459327 1514.77735 306.560489 1519.77489 365.322363 1541.76587 451.166202 1542.35863 461.294887 1580.63044 547.733544 1596.57347 589.303516 1638 630.5"></polyline>
                    <polyline id="Path" points="1354 2.5 1385.26907 73.1015077 1455.88813 123.332164 1483.65603 156.805608 1494.90217 184.566611 1498.65198 227.319839 1507.43636 315.097801 1511.83558 366.633222 1531.19373 441.920108 1532.94103 471.666083 1567.1753 548.699833 1586.85752 599.829605 1638 650.5"></polyline>
                    <polyline id="Path" points="1344 0.5 1378.43372 78.4747707 1456.19993 133.951262 1478.28097 160.647372 1487.2239 182.787634 1490.20576 216.88466 1500.55487 320.601374 1504.3402 365.075267 1520.99702 430.046132 1523.89281 479.488479 1553.96846 547.362901 1577.32087 608.204768 1638 668.5"></polyline>
                    <polyline id="Path" points="1333 1.5 1370.71544 86.7358555 1455.89319 147.37837 1472.36265 167.25034 1479.03287 183.731041 1481.25693 209.112082 1493.20594 328.623875 1496.39028 365.962082 1510.40251 420.508591 1514.45661 489.589746 1540.47609 548.193123 1567.57803 618.663132 1638 688.5"></polyline>
                    <polyline id="Path" points="1322 2.5 1360.7675 89.8264019 1361.25023 96.6116099 1372.75537 101.783138 1455.60687 160.576188 1466.44451 173.609984 1470.83381 184.419485 1472.29734 201.066617 1485.85007 336.174302 1488.43108 366.33897 1499.78846 410.405825 1505.00417 498.989429 1526.95118 548.258455 1557.8117 628.238519 1638 707.5"></polyline>
                    <polyline id="Path" points="1313 2.5 1343.45218 71.0730676 1346.44124 113.073462 1417.68137 145.085191 1457.339 173.217782 1462.52654 179.454479 1464.62752 184.626847 1465.32805 192.592532 1480.48794 343.672448 1482.46351 366.753693 1491.15674 400.472542 1497.53705 508.800038 1515.39687 548.88054 1550.02414 638.593283 1640 727.5"></polyline>
                    <polyline id="Path" points="1303 0.5 1325.04487 50.2630059 1330.53083 127.537334 1453.17734 182.783668 1454.71331 185.697979 1457.62901 189.398305 1473.61385 349.090151 1474.97803 365.067335 1480.98089 388.408028 1488.50617 516.488634 1502.22475 547.351003 1530.1248 619.812082 1533.75533 653.544801 1611.13819 729.634671 1618.45212 751.17223 1640 793.5"></polyline>
                    <polyline id="Path" points="1292 2.5 1305.62608 33.3533692 1313.57876 145.71786 1399.50965 184.544529 1419.1477 221.91974 1456.42625 269.375351 1465.24502 357.747424 1465.99763 366.589058 1469.30938 379.505593 1477.95182 527.052212 1487.51553 548.633587 1506.96565 599.304024 1514.78384 672.169221 1574.10467 730.678116 1590.29653 778.505274 1638 872.5"></polyline>
                    <polyline id="Path" points="0 43.5 29.7757231 30.4051177 52 0.5"></polyline>
                    <polyline id="Path" points="1281 1.5 1286.3115 13.5119998 1296.77032 161.104683 1346.59526 183.589749 1384.39788 255.447527 1456.15792 346.685936 1457.88304 363.952024 1458.03027 365.679498 1458.67811 368.203123 1468.48506 535.425312 1473.96196 547.769247 1485.10055 576.7513 1497.14004 688.821061 1538.7986 729.858995 1563.93744 804.022426 1598.86644 872.76188 1615.99576 911.948744 1617.07326 932.903987 1638 1054.5"></polyline>
                    <polyline id="Path" points="0 115.5 80.1654084 80.4788033 140 0.5"></polyline>
                    <polyline id="Path" points="1215 2.5 1247.16328 30.8219301 1275.50663 92.0239732 1281.64573 178.474517 1295.26798 184.608982 1317.26702 226.337819 1347.71603 294.563125 1401.42722 366.717965 1422.87176 401.573162 1457.75332 492.913178 1460.85712 545.725485 1462.23613 548.826947 1465.04067 556.1088 1481.32605 707.381001 1505.28789 730.935929 1529.71293 802.841169 1537.52204 833.336457 1572.43795 913.044911 1575.74633 977.250031 1586.93584 1042.12983 1590.37765 1095.15389 1584.61284 1150.49921 1614.73781 1252.01977 1607.85546 1277.26288 1614.37863 1302.86489 1640 1337.5"></polyline>
                    <polyline id="Path" points="325 1.5 282.662534 83.3792989 279.169487 98.5785947 256.332873 109.743348 182.217517 161.896064 174.650859 176.378963 85.9392554 183.955503 24.7632208 208.751066 0 225.5"></polyline>
                    <polyline id="Path" points="1484.81127 1640.5 1488.31832 1608.90915 1456.67114 1481.90753 1454.652 1460.51555 1453.86435 1458.5 1455.08731 1456.91898 1456.67114 1278.41898 1456.73313 1276.56187 1456.71735 1276.5 1456.73465 1276.43661 1524.89873 1162.60614 1532 1094.5 1527.41168 1023.88538 1529.63325 985.332244 1525.87648 912.5 1504.80681 864.450008 1475.21536 749.011209 1468.92095 730.5 1462.74591 724.436044 1456.67114 668.066367 1428.26501 576.855573 1419.70325 548.5 1388.25887 480.209493 1375.69175 447.33526 1325.90711 366.5 1303.91408 336.985172 1274.34663 270.803025 1245.44839 213.346806 1220.001 184.5 1172.44171 104.223534 1092.02211 30.7336976 1067.45981 27.0185818 997 2.5"></polyline>
                    <polyline id="Path" points="0 387.320344 20.5762029 386.422617 166.750223 381.226183 182.132984 380.565349 192.812273 376.520002 350.765197 365.834559 357.533248 359.097961 364.265967 355.946007 429.769914 249.138326 492.546424 237.480194 546.398951 211.923859 572.469584 209.682293 696.100812 216.046448 728.531934 213.884291 753.655454 208.734634 829.306849 183.596639 859.257794 132.159897 910.664918 112.5 969.190501 125.037337 1034.68556 125.450816 1092.7979 134.261214 1118.53952 157.840192 1133.76283 183.596639 1199.86489 258.705879 1232.13143 323.01045 1257.19035 365.834559 1267.51106 373.258659 1274.93089 394.986847 1336.33555 486.632433 1364.55902 548.07248 1385.98314 619.194161 1404.0153 677.231271 1420.23894 730.3104 1426.16867 761.223395 1457.06387 831.758412 1473.51511 896.087599 1480.71606 912.54832 1482 937.498818 1473.9279 1077.9125 1475.02172 1094.78624 1473.32883 1111.06057 1457.06387 1138.28631 1423.29077 1243.2316 1418.44648 1277.02416 1401.3196 1332.80055 1400.69938 1402.86511 1357.17739 1459.26208 1385.20803 1531.15932 1389.20463 1573.60167 1406.38507 1641.5"></polyline>
                    <polyline id="Path" points="0 414.848118 46.707203 412.810527 138.677262 409.541367 182.116845 407.675426 212.274233 396.252913 342.908565 387.416487 364.233689 382.312625 383.900413 385.757305 439.833978 366.081312 486.472577 306.175137 546.350534 277.762344 632.764387 270.333219 641.599009 270.787951 728.467379 264.997116 795.761972 251.20495 866.92138 227.562064 910.584224 216.5 946.564477 219.875853 1056.33021 220.266642 1092.70107 224.433764 1159.94648 298.804212 1199.31842 366.081312 1243.2409 397.673207 1274.81791 490.133529 1298.14527 524.945629 1308.86724 548.283982 1323.55767 597.046712 1342.90453 662.367946 1363.7272 730.486652 1378.73594 808.722318 1398.80201 854.529177 1415.77264 912.689321 1423 946.640072 1415.1028 1053.04032 1420.6005 1094.89199 1411.71327 1140.13479 1389.38414 1209.51221 1379.69494 1277.09466 1355.04573 1357.36028 1274.81791 1449.58885 1271.60905 1456.08695 1270.20131 1459.29733 1271.40202 1462.71483 1274.81791 1481.76808 1329.43115 1586.86103 1343.258 1641.5"></polyline>
                    <polyline id="Path" points="0 442.272541 72.8039217 439.09528 110.564246 437.752545 182.026575 434.681725 231.638405 415.883448 320.445628 409.874028 364.05315 399.433231 404.269425 406.479895 518.647378 366.229388 530.658715 350.795252 546.079725 343.475023 570.952039 341.335901 681.043196 319.126224 728.106299 315.987704 791.238166 303.043784 840.987186 297.024843 910.132874 279.5 989.358634 286.936191 1018.92639 292.933993 1092.15945 301.327718 1122.95901 335.403607 1140.99204 366.229388 1218.47879 421.98404 1255.12784 529.336501 1265.46633 548.410904 1267.2112 555.391663 1274.18602 621.595029 1299.08005 705.677205 1306.69329 730.59242 1314.41434 770.854975 1316.88475 870.038868 1329.34974 912.773936 1344.27774 982.925314 1356.21895 1012.8527 1367 1094.95545 1351.75552 1172.59098 1351.49298 1199.76421 1340.40437 1277.13697 1324.84109 1327.83515 1274.18602 1386.08949 1249.99141 1435.10327 1239.37718 1459.31848 1248.43047 1485.09596 1274.18602 1628.81062 1278.52295 1637.15938 1279.62096 1641.5"></polyline>
                    <polyline id="Path" points="1253.686 1640.5 1245.69865 1611.14228 1226.92542 1506.4734 1210.00744 1458.34168 1229.84237 1413.12703 1275.05514 1321.60846 1296.19163 1297.32074 1302.68561 1276.18337 1307.31248 1243.92469 1308.43915 1127.41045 1315 1094.02505 1310.3601 1058.71862 1275.05514 970.307976 1268.15357 918.76859 1269.25098 911.866735 1268.94538 905.756714 1267.8917 736.872161 1267.49877 729.708419 1265.63021 720.283096 1250.05355 572.552731 1243.79896 547.550102 1206.74017 479.232287 1195.14757 445.302686 1115.68243 388.170761 1092.90441 369.490098 1084.77139 373.525144 1040.3656 365.391786 932.596065 343.548485 910.753673 341.5 891.690338 346.327658 733.98992 365.391786 729.4395 366.228382 728.602939 365.791714 727.93956 366.055193 573.088306 392.028997 546.452204 415.60878 518.452059 393.393097 425.1185 426.211348 364.301469 415.563655 298.356029 431.339971 251.279075 434.523004 182.150735 460.69504 98.8747113 464.270613 82.43766 465.109011 0 468.703791"></polyline>
                    <polyline id="Path" points="890.101921 547.690708 898.058087 559.379056 909.741715 562.5 918.806236 556.75889 925.550721 547.690708 936 521.421816 909.741715 433.5 879 516.936574 890.101921 547.690708"></polyline>
                    <polyline id="Path" points="1230.45751 1641.5 1213.72615 1580.03232 1204.72471 1529.86891 1179.94499 1459.40363 1208.99714 1393.20897 1257.55565 1294.96421 1265.9252 1277.30727 1265.84482 1267.93596 1267.02623 1103.4013 1266.95372 1095.2109 1269 1088.99342 1248.95457 939.368864 1253.13102 913.114531 1251.96796 889.872297 1251.12673 755.101274 1249.80515 731.018164 1243.52048 699.332062 1232.19098 591.932551 1221.42646 548.921796 1176.27641 465.726828 1093.04584 397.5 1032.14416 427.701046 958.23693 414.170564 978.352789 481.469409 951.49915 548.921796 934.166473 572.206772 910.871531 586.948603 880.845735 578.934746 860.399156 548.921796 831.86829 469.952355 845.976606 431.692591 801.727097 439.824057 728.697225 401.721797 670.785775 424.712103 613.964779 434.238436 546.522919 493.913757 475.627339 437.690677 445.749499 448.19149 364.348613 433.946717 276.083578 455.052701 270.796784 455.409991 182.174306 488.94677 124.643666 491.415769 53.9235995 495.021267 0 497.371557"></polyline>
                    <polyline id="Path" points="1206.43684 1640.5 1182.06201 1550.86244 1179.83276 1545.72427 1149.12593 1458.31723 1187.37278 1371.08581 1194.90681 1355.82757 1232.64444 1276.13446 1232.28205 1233.83785 1232.98714 1135.54282 1232.61928 1093.95169 1243 1062.37912 1228.94976 957.39972 1236.20131 911.76892 1234.1819 871.373238 1233.55357 770.610521 1231.30458 729.58615 1220.60961 675.610465 1213.53298 608.45972 1198.26733 547.40338 1161.06147 478.778301 1092.47539 422.5 1009.03745 463.917995 975.833978 547.40338 947.9167 584.945255 910.396161 608.713198 862.034415 595.792626 829.101657 547.40338 802.361531 473.316673 728.316928 434.64648 647.658472 466.699058 560.826593 547.40338 554.136852 555.307028 546.237696 556.329913 539.936592 553.708067 537.689048 547.40338 447.557205 463.957216 364.158464 449.348279 285.077151 468.277098 235.379211 494.073093 182.079232 514.263135 150.321334 515.627423 25.3856157 522.003329 0 523.110879"></polyline>
                    <polyline id="Path" points="1183.13048 1641.5 1163.75482 1570.21576 1133.32726 1500.05313 1118.99092 1459.22697 1139.66297 1412.05876 1165.52009 1350.00522 1200.09755 1276.95394 1199.45306 1201.69921 1199.68245 1169.70602 1199.01918 1094.68091 1217.73654 1037.72801 1209.67053 977.434892 1220 912.407883 1217.12346 854.841274 1216.70757 788.11777 1213.53027 730.134853 1198.42082 653.846842 1195.59097 626.982521 1175.81735 547.861824 1146.53034 493.819347 1092.54203 449.5 1026.86291 482.116807 1000.72642 547.861824 962.213141 599.675207 910.45169 632.47851 843.734256 614.646195 798.301878 547.861824 779.745312 496.426311 728.361352 469.579103 672.387645 491.831958 612.129834 547.861824 581.93026 583.556847 546.271014 588.176475 517.82587 576.335507 507.679754 547.861824 433.146285 478.827022 364.180676 466.741085 298.785313 482.400849 192.186363 537.75567 182.090338 541.581707 176.074791 541.840242 58.1332687 547.861824 3.59907988 551.464515 0 550.501377"></polyline>
                    <polyline id="Path" points="0 574.951432 36.4505328 584.700273 153.399947 576.978651 182.132197 597.492465 208.879157 574.992502 212.855551 548.233968 312.547918 496.495115 364.264393 484.117996 418.804319 493.670443 477.747463 548.233968 495.79616 598.856293 546.39659 619.907919 609.830023 611.694849 663.551367 548.233968 697.237558 516.9292 728.528787 504.496179 757.254189 519.496137 767.627948 548.233968 825.571255 633.360515 910.660983 656.090434 976.676229 614.277779 1025.79509 548.233968 1044.86695 500.287003 1092.79318 476.5 1132.18859 508.82151 1153.5594 548.233968 1173.83295 629.308807 1178.88704 644.313864 1195.95572 730.444973 1200.06213 805.340616 1200.26559 837.963882 1204 912.655979 1190.58998 997.02787 1192.67138 1012.57739 1165.61178 1094.86698 1166.26194 1168.36754 1167.10678 1202.73223 1167.74385 1277.07799 1143.64835 1327.95517 1092.79318 1449.93101 1088.9775 1455.47167 1090.71132 1459.28899 1090.58646 1461.49666 1092.79318 1466.84462 1145.63883 1588.63148 1160.01714 1641.5"></polyline>
                    <polyline id="Path" points="0 599.400314 69.3175221 617.928607 115.934233 614.852543 182.175203 662.118311 243.839174 610.276269 253.006577 548.622074 326.318873 510.596571 364.350406 501.5 404.458262 508.520577 447.80418 548.622074 473.759255 621.376892 546.525608 651.632461 637.440204 639.868213 638.524869 640.60675 639.221861 638.086838 715.000976 548.622074 722.10337 542.02568 728.700811 539.405851 734.757273 542.566573 736.944476 548.622074 754.540357 574.457524 766.340557 693.134617 841.194085 661.097514 910.876014 679.700565 991.152107 628.88544 1050.88179 548.622074 1062.88586 518.4615 1093.05122 503.498516 1117.84717 523.830049 1131.29822 548.622074 1144.05865 599.621417 1164.26231 659.56859 1178.38039 730.768395 1183.33251 821.035372 1183.47699 822.503284 1188 912.914716 1174.97366 994.824169 1151.38716 1036.73434 1132.19603 1095.06104 1132.54554 1134.5491 1135.0225 1235.24273 1135.38231 1277.20736 1121.77351 1305.92509 1093.05122 1374.77463 1058.54408 1424.85201 1074.22389 1459.35368 1073.09476 1479.30698 1093.05122 1527.64272 1127.5215 1607.03518 1136.90021 1641.5"></polyline>
                    <polyline id="Path" points="336 1093.83257 350.784612 1106.90514 363.801155 1107.5 373.845495 1103.92015 438.217043 1093.83257 445 1012.28421 363.801155 953.5 340.684964 1070.61688 336 1093.83257"></polyline>
                    <polyline id="Path" points="459 912.724558 481.767038 976.5 545.051897 941.505497 549.371881 917.078031 551.565192 912.724558 552 905.722594 545.051897 903.502366 533.913682 901.5 459 912.724558"></polyline>
                    <polyline id="Path" points="877.126216 1275.68558 885.44896 1301.62981 911.390355 1313.41957 964.199005 1328.5 1032 1275.68558 1009.63756 1192.04904 1010.41219 1176.65293 954.322006 1093.7911 926.111728 1079.06812 911.390355 1037.5 900.523275 1082.92284 901.925019 1093.7911 903.260538 1101.92181 874 1238.29114 877.126216 1275.68558"></polyline>
                    <polyline id="Path" points="280 1094.42792 324.587569 1133.71239 363.842981 1135.5 394.134793 1124.74216 538.167404 1102.25111 545.984807 1100.18543 550.093523 1098.53967 554.823848 1094.42792 559.09137 1081.31165 582.67751 948.871097 601.306862 912.151226 605 853.092337 545.984807 834.36556 457.377827 818.547124 443.398284 809.488745 363.842981 776.5 305.82346 854.088746 316.58974 912.151226 304.689316 971.34869 294.128958 1024.66228 280 1094.42792"></polyline>
                    <polyline id="Path" points="1113.77955 1640.5 1109.40276 1624.42053 1093.31643 1587.38019 1055.60159 1496.0571 1057.73548 1458.35836 1028.10292 1393.17268 1093.31643 1298.55903 1099.89542 1282.79291 1103.01259 1276.21672 1102.93017 1266.60708 1098.82029 1099.5766 1098.77158 1094.07508 1101.44603 1085.94895 1161.20514 979.79318 1172 911.933442 1168.2518 837.030047 1164.72093 801.165832 1160.80424 729.791803 1149.63809 673.494171 1114.27746 568.602253 1109.03368 547.650163 1103.5061 537.464841 1093.31643 529.112025 1080.92025 535.259277 1075.98729 547.650163 1025.6104 615.32729 1007.67072 644.182645 986.918882 654.0023 911.097022 701.985 873.144526 691.855504 784.483958 729.791803 765.879482 766.777877 728.877617 760.397884 686.952768 771.69876 682.170656 729.791803 601.556316 674.917128 546.658213 682.018976 464.840596 648.009103 421.697841 672.557207 447.463616 630.639539 417.849447 547.650163 390.107944 521.991983 364.438809 517.5 340.098526 523.320268 293.178461 547.650163 280.734363 631.318886 305.164723 670.543013 209.845363 702.177633 182.219404 725.397058 166.865074 714.444025 84.6978817 645.130067 0 622.49674"></polyline>
                    <polyline id="Path" points="862.343419 1277.03927 873.906652 1313.12566 909.948418 1329.5243 983.318298 1350.5 1077.51784 1277.03927 1072.40526 1257.89637 1080 1106.77711 1072.19809 1095.23836 965.584245 1039.53364 927.026417 930.536602 917.130517 913.437455 916.894355 906.482916 909.948418 887.5 891.264746 894.730647 897.040298 913.437455 900.154381 923.24362 868.878948 1054.11803 874.176499 1095.23836 879.223765 1126.00106 858 1225.02652 862.343419 1277.03927"></polyline>
                    <polyline id="Path" points="0 1059.5 66.6556046 979.433835 74 913.602543 51.7424277 862.5 0 874.012119"></polyline>
                    <polyline id="Path" points="0 647.5 65.6394719 665.057135 143.417593 730.730979 131.558134 781.25776 182.058471 802.574762 248.990064 845.918142 261.410096 912.884783 248.119967 978.980871 235.194803 1041.87443 224.425649 1095.03859 298.713265 1160.47651 364.116942 1163.45421 414.586312 1145.53438 510.703946 1130.52863 546.175414 1121.15766 564.818711 1113.69165 586.282563 1095.03859 605.646443 1035.53642 615.193579 981.939089 650.234978 912.884783 654.828639 839.441099 728.233885 819.635844 807.722466 833.354578 832.294212 912.884783 851.111256 972.096873 838.813255 1023.52206 848.033343 1095.03859 856.817827 1148.54112 843.54764 1210.41272 849.12818 1277.19239 863.984931 1323.52407 910.292356 1344.57843 999.521812 1370.07002 1040.06706 1459.3462 1036.93145 1514.79459 1087 1636.14637 1086.09769 1641.5"></polyline>
                    <polyline id="Path" points="331.523105 548.618778 326 585.024267 363.150823 643.5 400 584.728673 386.856245 548.618778 374.543641 537.454528 363.150823 535.5 352.347794 538.032484 331.523105 548.618778"></polyline>
                    <polyline id="Path" points="470 730.727724 516.658504 761.310853 546.869629 766.766623 599 783.5 593.053806 730.727724 565.579525 711.787445 546.869629 714.238684 518.985258 702.5 470 730.727724"></polyline>
                    <polyline id="Path" points="889.845468 730.471979 869 772.025818 910.458905 755.964224 952.282901 870.387262 953.70492 912.307029 1004.3966 999.989283 1091.87853 1061.5 1145.47735 966.028577 1154 912.307029 1151.04076 853.009329 1144.15389 782.867037 1141.28648 730.471979 1133.11172 689.144374 1091.87853 566.5 1029.17716 667.627035 922.803201 718.099416 910.458905 725.932545 904.27999 724.278915 889.845468 730.471979"></polyline>
                    <polyline id="Path" points="0 1192.0263 86.1301321 1181.58244 104.814667 1172.63915 182.002304 1154.52258 269.4155 1190.04216 273.595496 1187.04598 364.004607 1191.16034 434.643598 1166.08992 482.897277 1158.5599 546.006911 1141.89464 579.176434 1128.61713 617.364191 1095.44467 644.541453 1011.96951 668.639292 972.801413 698.782156 913.426225 700.503451 885.918023 728.009214 878.5 757.794471 883.638328 767.001777 913.426225 785.179455 970.601535 810.719059 1012.72749 821.387801 1095.44467 833.892234 1171.5707 828.633634 1196.07801 835.437657 1277.46311 853.551614 1333.92802 910.011518 1359.58721 987.710993 1381.77519 1023.0171 1459.48156 1018.87916 1532.6227 1044 1593.48192 1035.90346 1641.5"></polyline>
                    <polyline id="Path" points="0 831.5 82.6018478 812.935237 102 730.525855 46.6834369 683.951192 0 671.5"></polyline>
                    <polyline id="Path" points="149.605308 912.90597 145.569139 949.668818 182.200235 1029.5 202.01392 932.79092 206 912.90597 202.274886 892.759115 182.200235 879.719297 125 855.5 149.605308 912.90597"></polyline>
                    <polyline id="Path" points="989.964302 912.985493 1027.683 977.936014 1092.77662 1023.5 1132.65846 952.779663 1139 912.985493 1136.79809 869.060796 1126.4685 764.325855 1124.62043 730.708032 1119.35174 704.191331 1092.77662 625.5 1052.36508 690.385332 967 730.708032 971.034693 791.511198 987.338116 835.914744 989.964302 912.985493"></polyline>
                    <polyline id="Path" points="0 1303.77429 18.0649931 1294.65424 157.023865 1301.68932 182.131078 1295.85205 195.962829 1290.4253 216.235525 1276.60759 302.461607 1214.86977 364.262155 1217.6791 455.150599 1185.45757 455.570274 1185.39215 546.393233 1161.43514 594.128484 1142.34818 649.085626 1094.66138 668.597809 1034.79571 728.52431 937.5 787.906658 1035.33931 795.566386 1094.66138 808.74449 1174.80014 815.332642 1189.88737 822.590706 1276.60759 843.981577 1343.21372 910.655388 1373.48135 976.899247 1392.37718 1007 1458.55379 1001.85514 1549.39282 1002.04384 1549.84948 986.741976 1640.5"></polyline>
                    <polyline id="Path" points="0 790.5 49.3991443 779.477172 61 730.546601 27.918526 702.892896 0 695.5"></polyline>
                    <polyline id="Path" points="1026.34679 912.97823 1050.80827 955.012315 1093.02303 984.5 1118.88736 938.731858 1123 912.97823 1121.57201 884.551446 1107.80946 745.29966 1106.99839 730.576522 1104.68611 718.963365 1093.02303 684.5 1075.28754 712.916941 1037.8232 730.576522 1041.25107 782.126901 1024 844.250621 1026.34679 912.97823"></polyline>
                    <polyline id="Path" points="0 1387.5728 74.0030259 1350.15077 106.436713 1351.79551 182.083427 1334.17901 223.75777 1317.80143 284.83834 1276.10046 331.047505 1242.95995 364.166855 1244.46798 413.168841 1227.06717 471.172469 1200.97468 546.250282 1181.13809 608.5115 1156.20169 680.192249 1093.90069 692.017029 1057.56081 728.33371 998.5 764.320623 1057.89079 768.962574 1093.90069 776.948773 1142.54682 802.721385 1201.66526 808.940955 1276.10046 833.589474 1352.97721 910.417137 1387.91209 965.136087 1403.54632 990 1458.30023 985.738351 1533.66957 941.913683 1608.98333 936.602443 1640.5"></polyline>
                    <polyline id="Path" points="0 749.5 16.1964408 745.903077 20 729.936259 9.15361507 720.912419 0 718.5"></polyline>
                    <polyline id="Path" points="1063.06672 912.124877 1074.18558 931.152072 1093.3741 944.5 1105.13062 923.782542 1107 912.124877 1106.35091 899.257177 1093.3741 768.5 1062 881.014561 1063.06672 912.124877"></polyline>
                    <polyline id="Path" points="808.870652 1641.5 885.27503 1616.58256 910.170693 1621.03925 969.635501 1518.82344 973 1459.3066 953.370367 1416.06914 910.170693 1403.72327 823.195283 1364.16471 795.291076 1277.11321 790.109503 1215.08604 745.162879 1111.96103 742.365894 1094.91981 740.740156 1082.30518 728.136555 1061.5 715.41746 1082.18959 711.276099 1094.91981 622.8813 1171.76587 546.102416 1202.52402 487.145664 1218.10487 370.656916 1270.5188 364.068277 1272.85901 359.615164 1272.6562 353.402038 1277.11321 251.535871 1346.67574 182.034139 1373.99564 112.889719 1390.10169 12.3987461 1459.3066 7.55578801 1466.869 0 1470.70809"></polyline>
                </g>
            </g>
        </g>
    </g>
</svg>