<svg xmlns="http://www.w3.org/2000/svg" width="66" height="66" viewBox="0 0 66 66">
    <g fill="none" fill-rule="evenodd">
        <circle cx="33" cy="33" r="33" fill="#FFF" fill-rule="nonzero"/>
        <path fill="#72622E" d="M44.243 27.2c-.095.223-.132.352-.232.422-.198.137-.377.205-.611.338-.213.121-.388.52-.388.52l-.56-1.992c.092-.005.187-.011.291-.02 0 0 .766-.13 1.673.004l.089.013c-.085.243-.205.579-.262.714zm-1.834 2.25c-.082.061-.116.09-.32.261-.068.057-.214.157-.338.437-.03.066-.196.455-.275.638l-.532-.386s-.216-.124-.266-.488c-.053-.39-.308-2.35-.308-2.35s-.005-.305-.203-.477c-.197-.173-1.544-1.557-1.544-1.557s-.202-.234-.455-.152c-.21.068-.202.063-.3.084-.116.025-.18.062-.404-.118l.126-.557s.035-.278.404-.565c.123-.097.28-.232.43-.365.871.443.894.698 2.406.319 0 0 1.106-.222 2.405.36.046.02.154.062.154.144 0 .046-.003.102-.137.13-.128.025-.822.027-1.216-.048-.467-.089-1.15.004-1.414.185s-.432.433-.732.51c-.3.075-.299.365-.286.453.01.067.05.257.293.29.243.034.507.005.947.127.292.08.561.158 1.024.173.124.55.542 2.415.598 2.682.043.204-.03.248-.057.27zm-6.303-6.05c.608-.118 1.221.018 1.684.181l-.426.31s-.281.203-.395.603l-.09.309c-.429-.405-1.007-.958-1.404-1.34.198-.001.408-.02.631-.063zM23.79 29.599s-.062-.013-.117-.1a.194.194 0 0 1-.004-.19c.03-.056.493-.968.715-1.405.219-.034.48-.047.834-.03-.15.584-.272 1.064-.288 1.148-.063.33.017.603.091.74.042.077.1.187.166.315l-1.397-.478zm.18-1.595c-.146.257-.339.59-.42.724-.014.02-.063.055-.088-.01l-.115-.509c.089-.015.174-.036.25-.066.13-.052.25-.099.374-.139zm6.589 2.012l.915-1.13c.263-.32.288-.73.288-.73l.118-1.83c.269.024.513.083.87.112l.37 1.66s.041.174-.08.34c-.197.271-.434.698-.642.95-.064.076-.178.13-.363.15-.185.019-.351.033-.749.423a6.573 6.573 0 0 0-.727.823c-.26-.506 0-.768 0-.768zm18.266-5.826c-.188-.111-.436-.2-.951-.344-.515-.145-1.13-.401-1.606-.735-.477-.334-.34-.423-1.247-.39-.908.034-1.12.14-1.876-.228-.756-.367-.827-.344-1.559-.35-.732-.006-1.053-.022-1.351-.111-.298-.09-.318-.08-.648-.11-.332-.031-.364-.18-.36-.3.006-.126.134-.233.295-.263 0 0 .571-.143 1.672-.034.924.091 1.031-.28 1.028-.384a.349.349 0 0 0-.334-.347 6.585 6.585 0 0 1-1.086-.226c-.398-.123-.627-.28-1.286-.541-.66-.26-1.244.11-1.408.21-.164.097-.525.229-.948.248-.424.018-.917.122-1.389.645s-.474.47-.743.516c-.268.046-.715-.176-1.181.057-.466.234-.418.145-.66.24-.242.093-.441.309-.485.443-.044.135-.205.168-.318.174-.114.006-.412.066-.532.252a.853.853 0 0 1-.318.314.257.257 0 0 0-.124.264c.008.053.034.244.591.205.558-.04 1.21-.167 1.861-.111.174.014.35.042.531.072.644.667 2.555 2.65 2.7 2.794.247.245.563.155.563.155s.23-.053.363-.09c.133-.037.236.062.236.062s.857.77 1.017.934c.208.214.227.504.227.504s.338 2.18.393 2.627c.054.446.237.636.393.756.352.273.807.61 1.087.801.405.277.23.585.23.585s-1.078 2.149-1.486 2.876c-.408.727-.205 1.233-.205 1.233l.59 1.504c.186.429.122.527.004.67l-2.02 2.45c-.264.311-.298.694-.298.694s-.057.464-.095.753c-.038.29-.253.374-.253.374s-.046-.007-.392.196c-.345.203-.32.687-.37 1.074-.049.386-.095.49-.189.61-.234.297-.964 1.092-.964 1.092-.37.395-.675.554-.892.6-.096.02-.28.016-.358.014-.046-.002-.083-.014-.14-.142-.089-.202-1.144-2.498-1.144-2.498s-.116-.173-.112-.606c.004-.433-.188-.825-.361-1.135-.173-.31-.458-.876-.458-.876s-.184-.41-.072-.772c.112-.362.547-1.877.547-1.877s.102-.317-.273-.81c-.375-.491-.93-1.2-1.215-1.624-.115-.172-.209-.234-.134-.697.074-.459.16-1.378.16-1.378s.07-.642-.563-.916l-.775-.341 1.588-2.31s.202-.346.588-.434c.386-.087.503-.286.622-.467.118-.18.772-1.342.772-1.342s.096-.119.02-.348a80.802 80.802 0 0 1-.494-1.598c.138-.001.29-.007.461-.02.997-.074.945-.174 1.383-.18.437-.008.648 0 .723-.14.075-.138.013-.239-.071-.293-.098-.063-.649-.163-.842-.218-.383-.11-.694-.504-1.062-.64-.368-.134-.429-.131-.711-.138-.149-.003-.152.034-.507-.069-.38-.11-.37-.318-1.223-.34-.851-.02-.851.05-1.209.085-.357.035-.795.066-1.091.39-.297.325-.553.432-.928.512-.375.08-.64.078-.832.218-.196.143-.105.412.041.457.146.045.422.039.756-.105.427-.184.75.05 1.01.075.133.013.62.034.897-.102.239-.119.434-.068.445-.01.006.033-.007.073-.13.105-.133.034-.363.052-.538.116-.174.064-.28.219-.28.289 0 .06.013.095.082.14.07.047.313.132.81-.063.335-.131.66-.192.98-.207-.022.328-.07 1.037-.106 1.43-.05.547-.254.72-.254.72s-1.022 1.087-1.233 1.347c-.287.354-.102.93.016 1.313a.763.763 0 0 1-.09.655l-.485.78-1.983-.873s-.43-.191-.602-.518a31.563 31.563 0 0 1-.53-1.11l-.137-.273a1.633 1.633 0 0 1-.116-.282l-.002-.004a.896.896 0 0 1-.015-.448c.027-.123.13-.583.252-1.12.566.035.978.034 1.514-.09.494-.113.309-.077.845-.23.536-.153.957-.153.957-.351 0-.157-.28-.165-.372-.17a4.177 4.177 0 0 1-.971-.206c-.21-.068-.751-.105-.936-.13a4.078 4.078 0 0 1-.73-.18l.175-.772s.034-.195.195-.355c.151-.15.924-.988 1.216-1.304.279-.01.608-.014.973-.012 1.009.006 1.512-.764 1.69-.968 0 0 .391-.576 1.094-.878 0 0 .372-.154.388-.482a.454.454 0 0 0-.317-.482s-.227-.087-.377-.17c-.151-.083-.334-.094-.687.028-.352.123-1.041.243-1.427.19-.385-.053-.468-.237-.409-.36.06-.122.279-.244.913-.304.635-.06.66-.12.986-.17.305-.046.477-.057.946.061.47.119.776-.07.963-.096.406-.058.668.037 1.292.234 0 0 .613.221 1.18-.15.568-.373.419-.523 1.128-.627.709-.104.758-.605.744-.678-.014-.072-.029-.297-.343-.409-.314-.11-.741-.128-.954-.116-.213.01-.654-.154-.886-.276-.231-.122-.825-.183-1.235-.142-.41.042-1.387-.42-1.88-.626-.494-.206-.669-.334-1.703-.272-1.035.06-1.467-.242-1.706-.332-.238-.088-.815-.22-1.585.073-.77.292-1.365.111-1.601.056-.236-.056-.687-.137-.921 0-.234.136-.293.27-.293.411 0 .142.11.249.217.3.082.041.125.09.113.143-.01.044-.033.078-.165.046 0 0-.316-.06-.516-.048-.038.002-.511.009-.937.296-.48.322-2.038.207-2.328.236-.29.028-.932-.021-1.477.555-.545.576-.727.638-1.03.668-.302.03-.541.132-.613.288a.375.375 0 0 0 .073.43c.085.095.237.259.558.298.321.039.628.243.691.336.064.093.452.43.713.393.52-.073.982-.383 1.308-.393 0 0 .535-.019.983.098.448.118 1.223-.285 1.223-.285s.475-.245.629-.016c.154.229-.657.36-.666.362-.01.003-.481.092-.869.395-.388.303-.447.333-.903.415a1.683 1.683 0 0 0-1.133.823s-.212.496-.796.408c-.585-.087-.923.264-1.015.349-.085.078-.115.144-.45.175-.37.034-.585.401-.585.72 0 .414.465.942 1.476.558.367-.14.969-.417 1.498-.439.529-.022.734.186 1.317.1.532-.078 1.503-.595 2.19-.629 0 0 .393-.04 1.437.217.838.207 1.268-.022 1.937-.175-.286.255-.59.524-.719.633-.202.172-.278.496-.278.496l-.276 1.064a2.78 2.78 0 0 1-.99-.122c-.603-.187-.489-.277-.984-.128-.496.15-.521.365-.992.41-.47.047-.588.074-.871.16-.283.085-.477.284-.84.336 0 0-.797.137-.798.526 0 .323.328.36.343.364.016.004.52.09.882 0s.53.083.735.133c.113.027.421.084.757.096l.285 1.396s.11.424.381.531c.338.132 1.68.692 2.207.913l.158.315c.516.996.673 1.042 1.065 1.242.925.474 2.794 1.316 3.24 1.54.297.148.281.386.27.468-.031.244-.033.202-.146.971-.078.527-.009.73.127.947.263.421.777 1.15 1.115 1.63.288.41.144.81.144.81s-.42 1.354-.485 1.591c-.158.568 0 .903 0 .903s.244.51.66 1.297c.417.787.346 1.367.356 1.587.01.22.098.44.098.44l.643 2.023-9.446.753c-.104.018-.184.123-.184.251 0 .031.005.06.014.088h22.097a.244.244 0 0 0 .012-.073c0-.107-.066-.194-.153-.21l-8.537-.862s.842-1.05 1.155-1.394c.111-.122.245-.277.231-.664-.017-.47.305-.664.499-.806.194-.142.532-.25.57-.874l.044-.745s.006-.315.33-.684c.324-.37 1.912-2.51 1.912-2.51s.384-.515.098-1.229c-.286-.713-.601-1.724-.601-1.724s-.118-.225.071-.603c.19-.378 1.522-3.16 1.522-3.16s.303-.613-.293-1.031a15.784 15.784 0 0 0-.04-.029l.176-.469c.054-.144.142-.477.404-.625.183-.104.3-.143.43-.432.162-.357.226-.487.43-.953.18-.416.203-.402.506-.578.276-.161.327-.204.417-.426.112-.278.3-.936.4-1.293.18.028.202.032.714.1.902.12.853-.504 1.7-.472 0 0 .624-.001.969-.13.345-.127.282-.386.193-.489-.11-.13-.31-.292-.675-.334-.259-.03-.712-.007-.942-.083-.143-.047-.119-.247-.017-.267.237-.047.616.05 1.05 0 .435-.05.874-.195.93-.378 0 0 .086-.207-.103-.318z"/>
    </g>
</svg>
