<svg xmlns="http://www.w3.org/2000/svg" width="29" height="29" viewBox="0 0 29 29">
    <g fill="#91191C" fill-rule="evenodd">
        <path fill-rule="nonzero" d="M14.5 2.436c6.67 0 12.064 5.394 12.064 12.064S21.17 26.564 14.5 26.564A12.055 12.055 0 0 1 2.436 14.5C2.436 7.83 7.83 2.436 14.5 2.436zM14.5 0C6.496 0 0 6.496 0 14.5S6.496 29 14.5 29 29 22.504 29 14.5 22.504 0 14.5 0z"/>
        <path d="M21.46 19.14l-1.74-1.74c-.348-.348-.696-.58-1.16-.58-.464 0-.87.232-1.16.58-.29.348-.696.58-1.16.58a3236141692525646 3236141692525646 0 0 1-4.06-3.48c-.348-.348-.58-.696-.58-1.16 0-.464.232-.87.58-1.16.348-.29.58-.696.58-1.16 0-.464-.232-.812-.58-1.16l-1.74-1.74c-.348-.348-.696-.58-1.16-.58-.464 0-.812.232-1.16.58l-.58.58c-.348.348-.58.696-.58 1.16 0 3.19 1.74 5.8 4.06 8.12l.58.58c2.32 2.32 4.93 4.06 8.12 4.06.464 0 .812-.232 1.16-.58l.58-.58c.348-.348.58-.696.58-1.16 0-.464-.232-.812-.58-1.16z"/>
    </g>
</svg>
